<svg xmlns="http://www.w3.org/2000/svg" width="20.883" height="10" viewBox="0 0 20.883 10">
  <path id="automotive" d="M35.578,41.63a1.233,1.233,0,1,0,0,1.74A1.239,1.239,0,0,0,35.578,41.63Zm-11.467,0a1.233,1.233,0,1,0,0,1.74A1.239,1.239,0,0,0,24.111,41.63Zm1.394.323h5.6a.549.549,0,1,1,0,1.1h-5.6a2.33,2.33,0,0,1-4.529,0h-.643l-.241-.016a1.961,1.961,0,0,1-1.773-1.856l.013-.194c.049-.244.129-.485.181-.728a2.938,2.938,0,0,1,1-1.75,3.944,3.944,0,0,1,1.856-.633l2.986-.468,1.44-1.411a3.023,3.023,0,0,1,2.1-1.163h5.2c1.546,0,2.192.109,3.151,1.351l1.289,1.664,1.223.323a.554.554,0,0,1,.448.541V42.5a.551.551,0,0,1-.55.55H36.972a2.332,2.332,0,1,1,0-1.1h1.134V39.131l-1.035-.274a.552.552,0,0,1-.307-.211l-1.388-1.8c-.732-.949-1.081-.923-2.284-.923h-5.2c-.471,0-.913.438-1.325.847L25,38.311a.536.536,0,0,1-.326.152l-3.131.491a3.086,3.086,0,0,0-1.365.425,1.962,1.962,0,0,0-.6,1.147,3.1,3.1,0,0,0-.152.751.921.921,0,0,0,.8.669l.748,0a2.332,2.332,0,0,1,4.532,0Z" transform="translate(-18.32 -34.83)" />
</svg>
