<svg xmlns="http://www.w3.org/2000/svg" width="84" height="86.9" viewBox="0 0 84 86.9">
  <g id="Group_489" data-name="Group 489" transform="translate(-744 -673)">
    <path id="Path_240" data-name="Path 240" d="M25.9,31.2A24.1,24.1,0,1,0,50,7.1,24.113,24.113,0,0,0,25.9,31.2Zm40.2,0A16.1,16.1,0,1,1,50,15.1,16.089,16.089,0,0,1,66.1,31.2Z" transform="translate(736 665.9)"/>
    <path id="Path_241" data-name="Path 241" d="M12,93.9a4.012,4.012,0,0,0,4-4A19.433,19.433,0,0,1,24.2,74,45.487,45.487,0,0,1,50,66a44.837,44.837,0,0,1,25.8,8.1A19.433,19.433,0,0,1,84,90a4,4,0,0,0,8,0A27.442,27.442,0,0,0,80.4,67.6,52.721,52.721,0,0,0,50,58a53.361,53.361,0,0,0-30.4,9.5A27.58,27.58,0,0,0,8,89.9,3.949,3.949,0,0,0,12,93.9Z" transform="translate(736 665.9)"/>
  </g>
</svg>
