<svg xmlns="http://www.w3.org/2000/svg" width="16.99" height="18" viewBox="0 0 16.99 18">
  <g id="baby-kids" transform="translate(0)">
    <path id="Path_244" data-name="Path 244" d="M18.364,8.812h0a7.1,7.1,0,0,0-6.578-4.488c-.091,0-.182.018-.291.018a1.766,1.766,0,0,1-1.054-2.253,1.344,1.344,0,0,1,1.708-.818.977.977,0,0,1,.6,1.272.707.707,0,0,1-.927.436.368.368,0,0,0-.254.691,1.464,1.464,0,0,0,1.872-.89A1.727,1.727,0,0,0,12.386.562,2.085,2.085,0,0,0,9.733,1.816a2.516,2.516,0,0,0,.618,2.635A7.056,7.056,0,0,0,5.208,8.794H5.19a2.71,2.71,0,0,0-1.89,2.58,2.671,2.671,0,0,0,1.908,2.562,7.059,7.059,0,0,0,13.156.018h.055a2.69,2.69,0,0,0-.055-5.142ZM4.045,11.374a1.907,1.907,0,0,1,.89-1.617,6.914,6.914,0,0,0-.2,1.617,6.682,6.682,0,0,0,.2,1.617A1.907,1.907,0,0,1,4.045,11.374ZM11.786,17.7a6.324,6.324,0,1,1,6.324-6.324A6.328,6.328,0,0,1,11.786,17.7Zm6.869-4.688a6.914,6.914,0,0,0,.2-1.617,6.682,6.682,0,0,0-.2-1.617,1.907,1.907,0,0,1,.89,1.617A2.049,2.049,0,0,1,18.655,13.009Z" transform="translate(-3.3 -0.443)" />
    <path id="Path_245" data-name="Path 245" d="M38.544,61.9a2.544,2.544,0,1,0,2.544,2.544A2.551,2.551,0,0,0,38.544,61.9Zm0,4.361a1.817,1.817,0,1,1,1.817-1.817A1.822,1.822,0,0,1,38.544,66.261Z" transform="translate(-30.058 -50.732)" />
    <path id="Path_246" data-name="Path 246" d="M44.517,69.2a1.217,1.217,0,1,0,1.217,1.217A1.218,1.218,0,0,0,44.517,69.2Zm0,1.708a.491.491,0,1,1,.491-.491A.489.489,0,0,1,44.517,70.908Z" transform="translate(-36.031 -56.706)" />
    <path id="Path_247" data-name="Path 247" d="M33.381,53.591a.691.691,0,1,0-.691.691A.7.7,0,0,0,33.381,53.591Z" transform="translate(-26.785 -43.368)" />
    <path id="Path_248" data-name="Path 248" d="M61.091,52.9a.691.691,0,1,0,.691.691A.715.715,0,0,0,61.091,52.9Z" transform="translate(-50.024 -43.368)" />
  </g>
</svg>
