<?xml version="1.0" encoding="utf-8"?>
<!-- Generator: Adobe Illustrator 22.0.0, SVG Export Plug-In . SVG Version: 6.00 Build 0)  -->
<svg version="1.1" id="Layer_1" xmlns="http://www.w3.org/2000/svg" xmlns:xlink="http://www.w3.org/1999/xlink" x="0px" y="0px"
	 viewBox="0 0 384 384" style="enable-background:new 0 0 384 384;" xml:space="preserve">
<path d="M368,48h-48V16c0-8.8-7.2-16-16-16s-16,7.2-16,16v32H96V16c0-8.8-7.2-16-16-16S64,7.2,64,16v32H16C7.2,48,0,55.2,0,64v304
	c0,8.8,7.2,16,16,16h352c8.8,0,16-7.2,16-16V64C384,55.2,376.8,48,368,48z M32,352V176h224c8.8,0,16-7.2,16-16s-7.2-16-16-16H32V80
	h32v16c0,8.8,7.2,16,16,16s16-7.2,16-16V80h192v16c0,8.8,7.2,16,16,16s16-7.2,16-16V80h32v64h-32c-8.8,0-16,7.2-16,16s7.2,16,16,16
	h32v176H32z"/>
<path d="M165,208H80c-8.8,0-16,7.2-16,16s7.2,16,16,16h85c8.8,0,16-7.2,16-16S173.8,208,165,208z"/>
<path d="M304,208h-85c-8.8,0-16,7.2-16,16s7.2,16,16,16h85c8.8,0,16-7.2,16-16S312.8,208,304,208z"/>
<path d="M165,272H80c-8.8,0-16,7.2-16,16s7.2,16,16,16h85c8.8,0,16-7.2,16-16S173.8,272,165,272z"/>
<path d="M304,272h-85c-8.8,0-16,7.2-16,16s7.2,16,16,16h85c8.8,0,16-7.2,16-16S312.8,272,304,272z"/>
</svg>
