<svg xmlns="http://www.w3.org/2000/svg" width="24" height="24" viewBox="0 0 24 24">
  <path id="cart" d="M20.2,21.2a2.4,2.4,0,1,0,2.4,2.4,2.392,2.392,0,0,0-2.4-2.4M1,2V4.4H3.4l4.32,9.108-1.632,2.94A2.446,2.446,0,0,0,5.8,17.6,2.4,2.4,0,0,0,8.2,20H22.6V17.6H8.7a.3.3,0,0,1-.3-.3.256.256,0,0,1,.036-.144L9.52,15.2h8.94a2.413,2.413,0,0,0,2.1-1.236l4.3-7.764A1.518,1.518,0,0,0,25,5.6a1.2,1.2,0,0,0-1.2-1.2H6.052L4.924,2M8.2,21.2a2.4,2.4,0,1,0,2.4,2.4A2.392,2.392,0,0,0,8.2,21.2Z" transform="translate(-1 -2)" />
</svg>
