<svg xmlns="http://www.w3.org/2000/svg" width="24" height="24" viewBox="0 0 24 24">
  <path id="Union_3" data-name="Union 3" d="M-2713.6,69.677a1.2,1.2,0,0,1-1.2-1.2v-8.4a1.2,1.2,0,0,1,1.2-1.2h8.4a1.2,1.2,0,0,1,1.2,1.2v8.4a1.2,1.2,0,0,1-1.2,1.2Zm1.2-2.4h6v-6h-6Zm-14.4,2.4a1.2,1.2,0,0,1-1.2-1.2v-8.4a1.2,1.2,0,0,1,1.2-1.2h8.4a1.2,1.2,0,0,1,1.2,1.2v8.4a1.2,1.2,0,0,1-1.2,1.2Zm1.2-2.4h6v-6h-6Zm12-10.8a1.2,1.2,0,0,1-1.2-1.2v-8.4a1.2,1.2,0,0,1,1.2-1.2h8.4a1.2,1.2,0,0,1,1.2,1.2v8.4a1.2,1.2,0,0,1-1.2,1.2Zm1.2-2.4h6v-6h-6Zm-14.4,2.4a1.2,1.2,0,0,1-1.2-1.2v-8.4a1.2,1.2,0,0,1,1.2-1.2h8.4a1.2,1.2,0,0,1,1.2,1.2v8.4a1.2,1.2,0,0,1-1.2,1.2Zm1.2-2.4h6v-6h-6Z" transform="translate(2728 -45.677)"/>
</svg>
