<svg xmlns="http://www.w3.org/2000/svg" width="10.286" height="16" viewBox="0 0 10.286 16">
  <g id="electronic-gadget" transform="translate(-624 -1032)">
    <path id="Path_271" data-name="Path 271" d="M15.571,18H8.714A1.714,1.714,0,0,1,7,16.286V3.714A1.714,1.714,0,0,1,8.714,2h6.857a1.714,1.714,0,0,1,1.714,1.714V16.286A1.714,1.714,0,0,1,15.571,18ZM8.714,3.143a.571.571,0,0,0-.571.571V16.286a.571.571,0,0,0,.571.571h6.857a.571.571,0,0,0,.571-.571V3.714a.571.571,0,0,0-.571-.571Z" transform="translate(617 1030)" />
    <path id="Path_272" data-name="Path 272" d="M15.857,26.143H13.571a.571.571,0,0,1,0-1.143h2.286a.571.571,0,1,1,0,1.143Z" transform="translate(614.429 1020.143)" />
  </g>
</svg>
