<svg xmlns="http://www.w3.org/2000/svg" width="24" height="31.44" viewBox="0 0 24 31.44">
  <path id="fire" d="M26.828,17.323A14.81,14.81,0,0,0,25.5,15.891c-1.135-1.048-2.445-1.8-3.546-2.9A8.894,8.894,0,0,1,20.47,3,11.434,11.434,0,0,0,16.19,5.306,13.951,13.951,0,0,0,12.1,20.852a1.474,1.474,0,0,1,.14.576.968.968,0,0,1-.611.873,1.025,1.025,0,0,1-1.118-.21,1.449,1.449,0,0,1-.262-.3,8.9,8.9,0,0,1-.926-8.943A12.468,12.468,0,0,0,5.151,23.035a10.612,10.612,0,0,0,.472,2.62A10.652,10.652,0,0,0,6.88,28.677,11.833,11.833,0,0,0,15.334,34.3c3.668.472,7.6-.21,10.41-2.795a10.385,10.385,0,0,0,2.62-11.528l-.227-.454a8.453,8.453,0,0,0-1.4-2.183l.087-.017m-5.415,11a5.734,5.734,0,0,1-1.886,1.048,4.93,4.93,0,0,1-5.013-1.432,4.772,4.772,0,0,0,3.651-3.581c.3-1.4-.245-2.55-.472-3.9a6.312,6.312,0,0,1,.314-3.6,9.452,9.452,0,0,0,1.048,1.852c1.328,1.747,3.406,2.515,3.843,4.891a2.69,2.69,0,0,1,.1.751A5.322,5.322,0,0,1,21.4,28.328Z" transform="translate(-5.126 -3)"/>
</svg>
