<svg xmlns="http://www.w3.org/2000/svg" width="18" height="14.25" viewBox="0 0 18 14.25">
  <path id="game-anime" d="M151.625,620.25a3.375,3.375,0,0,1-3.375-3.375h0a2.25,2.25,0,0,0-4.5,0h0a3.375,3.375,0,1,1-6.75,0V613.5a7.5,7.5,0,0,1,7.5-7.5h3a7.5,7.5,0,0,1,7.5,7.5v3.375A3.375,3.375,0,0,1,151.625,620.25Zm2.625-4.5V613.5a6.75,6.75,0,0,0-6.75-6.75h-3a6.75,6.75,0,0,0-6.75,6.75v3.375a2.625,2.625,0,0,0,5.25,0h0a3,3,0,0,1,6,0h0a2.625,2.625,0,0,0,5.25,0h0Zm-2.625-3.375a.75.75,0,1,1,.75-.75A.75.75,0,0,1,151.625,612.375Zm-1.5-1.5a.75.75,0,1,1,.75-.75A.75.75,0,0,1,150.125,610.875Zm-1.5,1.5a.75.75,0,1,1,.75-.75A.75.75,0,0,1,148.625,612.375Zm1.5,0a.75.75,0,1,1-.75.75A.75.75,0,0,1,150.125,612.375ZM143.75,612h-1.5v1.5a.375.375,0,0,1-.75,0V612H140a.375.375,0,0,1,0-.75h1.5v-1.5a.375.375,0,1,1,.75,0v1.5h1.5a.375.375,0,0,1,0,.75Z" transform="translate(-137 -606)" />
</svg>
