<svg id="houseware" xmlns="http://www.w3.org/2000/svg" width="23.946" height="16" viewBox="0 0 23.946 16">
  <path id="Path_282" data-name="Path 282" d="M25.355,43.9H23.617V42.738A1.74,1.74,0,0,0,21.879,41H14.636A1.74,1.74,0,0,0,12.9,42.738V43.9H11.159A1.16,1.16,0,0,0,10,45.056V54.5H26.514V45.056A1.16,1.16,0,0,0,25.355,43.9Zm-11.3,0V42.738a.58.58,0,0,1,.579-.579h7.243a.58.58,0,0,1,.579.579v7.125h-8.4Zm-2.9,1.159H12.9v4.807H11.159Zm14.2,8.284h-14.2V51.022h14.2Zm0-3.477H23.617V45.056h1.738Z" transform="translate(-10 -38.499)" />
  <path id="Path_283" data-name="Path 283" d="M68.839,18l-1.49,5.215h3.086v9.626H68.986V34h4.056V32.841H71.594V23.215h3.086L73.19,18Zm.046,4.056.828-2.9h2.6l.828,2.9Z" transform="translate(-50.733 -18)" />
</svg>
