<svg xmlns="http://www.w3.org/2000/svg" width="15.2" height="18" viewBox="0 0 15.2 18">
  <path id="lifestyle-accessory" d="M23.666,7.922l-.352-1.936A1.2,1.2,0,0,0,22.132,5H18.268a1.2,1.2,0,0,0-1.18.986l-.354,1.936A7,7,0,0,0,13.212,13.6H12.4a.4.4,0,1,0,0,.8h.812a7,7,0,0,0,3.522,5.678l.354,1.936a1.2,1.2,0,0,0,1.18.986h3.864a1.2,1.2,0,0,0,1.182-.986l.352-1.936a6.994,6.994,0,0,0,0-12.156ZM17.874,6.128a.4.4,0,0,1,.394-.328h3.864a.4.4,0,0,1,.394.328l.248,1.364a6.979,6.979,0,0,0-5.148,0Zm4.652,15.744a.4.4,0,0,1-.394.328H18.268a.4.4,0,0,1-.394-.328l-.248-1.364a6.979,6.979,0,0,0,5.148,0ZM20.2,20.2A6.2,6.2,0,1,1,26.4,14,6.208,6.208,0,0,1,20.2,20.2ZM16.4,14a.4.4,0,0,1-.4.4h-.4a.4.4,0,0,1,0-.8H16A.4.4,0,0,1,16.4,14Zm8.8,0a.4.4,0,0,1-.4.4h-.4a.4.4,0,1,1,0-.8h.4A.4.4,0,0,1,25.2,14Zm-4.6,4.2v.4a.4.4,0,0,1-.8,0v-.4a.4.4,0,1,1,.8,0Zm-.8-8.4V9.4a.4.4,0,1,1,.8,0v.4a.4.4,0,0,1-.8,0Zm-3.136,1.23a.4.4,0,1,1,.566-.566l.282.284a.4.4,0,0,1,0,.564.4.4,0,0,1-.564,0Zm7.072,5.94a.4.4,0,0,1-.284.682.4.4,0,0,1-.282-.116l-.282-.284a.4.4,0,1,1,.564-.564Zm-6.222-.282a.4.4,0,0,1,0,.564l-.282.284a.4.4,0,0,1-.566,0,.4.4,0,0,1,0-.566l.284-.282A.4.4,0,0,1,17.514,16.688Zm6.222-6.224a.4.4,0,0,1,0,.566l-.284.282a.39.39,0,0,1-.282.118.4.4,0,0,1-.282-.682l.282-.284A.4.4,0,0,1,23.736,10.464ZM22,14a.4.4,0,0,1-.4.4H20.2a.4.4,0,0,1-.4-.4V11.8a.4.4,0,1,1,.8,0v1.8h1A.4.4,0,0,1,22,14Z" transform="translate(-12 -5)" />
</svg>
