<svg xmlns="http://www.w3.org/2000/svg" width="18" height="18.001" viewBox="0 0 18 18.001"><g transform="translate(-906 -992)"><path d="M53.726,60.774l-.112.112a1.418,1.418,0,0,1,.053.384,1.477,1.477,0,0,1-.025.266L55.1,62.992a.3.3,0,1,0,.423-.423Z" transform="translate(862.14 942.382)" /><path d="M58.421,48.849,58,49.272l2.393,2.393a.3.3,0,0,0,.423-.423Z" transform="translate(858.63 951.931)" /><path d="M28.984,38.128a1.479,1.479,0,0,1,.268-.025,1.386,1.386,0,0,1,.383.054l.111-.112-1.8-1.8a.3.3,0,0,0-.423.423Z" transform="translate(883.099 962.089)" /><path d="M38.845,30.119l.423-.423L36.875,27.3a.3.3,0,1,0-.423.423Z" transform="translate(875.953 969.254)" /><path d="M21.465,5.454l.525.525-1.253,2.26-.765-.054L19.7,8.165l-.193.193-5.513,5.513-.364.364.307.414a.381.381,0,0,1-.034.5l-.377.377-.308.308.2.388a.454.454,0,0,1-.082.538L8.049,22.053a.468.468,0,0,1-.659,0l-2-2a.449.449,0,0,1-.134-.326.455.455,0,0,1,.136-.329l5.284-5.286a.464.464,0,0,1,.333-.138.473.473,0,0,1,.212.057l.388.2.306-.308.373-.375a.381.381,0,0,1,.275-.114.369.369,0,0,1,.226.077l.415.312.367-.367,5.513-5.515.192-.192-.019-.271-.053-.764,2.258-1.255m.053-.669a.3.3,0,0,0-.145.037L18.751,6.278a.3.3,0,0,0-.153.281l.066.954L13.15,13.029a.965.965,0,0,0-.586-.2.978.978,0,0,0-.7.289l-.375.377a1.049,1.049,0,0,0-1.235.189L4.971,18.974a1.063,1.063,0,0,0,0,1.5l2,2a1.065,1.065,0,0,0,1.5,0l5.286-5.288a1.051,1.051,0,0,0,.191-1.233l.377-.377a.978.978,0,0,0,.092-1.283L19.93,8.781l.954.068h.022a.3.3,0,0,0,.261-.153l1.455-2.624a.3.3,0,0,0-.05-.355l-.843-.843a.3.3,0,0,0-.212-.089Z" transform="translate(901.34 987.215)" /><path d="M8.583,11.906a3.542,3.542,0,0,0,1.335-.262.3.3,0,0,0-.225-.554A2.94,2.94,0,0,1,5.674,7.952l.991.991a1.271,1.271,0,0,0,.9.375h0a1.269,1.269,0,0,0,.9-.374l.688-.688a1.278,1.278,0,0,0,0-1.808l-.991-.991a2.94,2.94,0,0,1,3.139,4.017.3.3,0,1,0,.554.225A3.538,3.538,0,0,0,7.484,5l-.013.006-.013.006a.3.3,0,0,0-.088.058l0,0,0,.006a.3.3,0,0,0-.058.088L7.3,5.184a.294.294,0,0,0-.019.1s0,.009,0,.014a.3.3,0,0,0,.013.086s0,.009.006.013l.006.013a.3.3,0,0,0,.058.087l0,0L8.737,6.871a.68.68,0,0,1,0,.962l-.688.688a.675.675,0,0,1-.48.2h0a.678.678,0,0,1-.482-.2L5.716,7.149l0,0a.3.3,0,0,0-.087-.058l-.014-.006L5.6,7.077a.3.3,0,0,0-.085-.013H5.5a.3.3,0,0,0-.1.019l-.014.005a.3.3,0,0,0-.087.058l-.006,0,0,0a.292.292,0,0,0-.058.087l-.006.014s0,.009-.006.013a3.54,3.54,0,0,0,3.362,4.638Z" transform="translate(901.033 987.182)" /><path d="M61.632,59.477a.3.3,0,1,0,.225.554,2.94,2.94,0,0,1,4.017,3.14l-.991-.991a1.28,1.28,0,0,0-1.808,0l-.688.688a1.28,1.28,0,0,0,0,1.808l.991.991a2.94,2.94,0,0,1-3.139-4.019.3.3,0,1,0-.554-.225,3.536,3.536,0,0,0,4.377,4.7l.013-.006.013-.006a.293.293,0,0,0,.087-.058l0,0s0,0,0-.006a.3.3,0,0,0,.058-.087l.005-.013a.3.3,0,0,0,.019-.1s0-.009,0-.014a.3.3,0,0,0-.013-.085s0-.009-.006-.013l-.006-.014a.294.294,0,0,0-.058-.087l0,0L62.81,64.251a.682.682,0,0,1,0-.963L63.5,62.6a.682.682,0,0,1,.963,0l1.371,1.371,0,0a.3.3,0,0,0,.087.058l.013.006.013.006a.284.284,0,0,0,.2-.005.254.254,0,0,0,.027-.014.3.3,0,0,0,.065-.043s.011-.006.016-.01.006-.01.009-.014a.292.292,0,0,0,.043-.064.262.262,0,0,0,.015-.03s0-.006.005-.01a3.538,3.538,0,0,0-4.695-4.378Z" transform="translate(857.487 943.629)" /></g></svg>