<svg xmlns="http://www.w3.org/2000/svg" width="15.306" height="18" viewBox="0 0 15.306 18">
  <g id="men-fashion" transform="translate(0)">
    <path id="Path_268" data-name="Path 268" d="M19.643,3.775H18.1l-.816-1.744a.339.339,0,0,0-.141-.141h0a8.224,8.224,0,0,0-7.344,0h0a.231.231,0,0,0-.141.141L8.839,3.775H7.263A1.453,1.453,0,0,0,5.8,5.238V17.562a1.453,1.453,0,0,0,1.463,1.463h12.38a1.453,1.453,0,0,0,1.463-1.463V5.238A1.471,1.471,0,0,0,19.643,3.775ZM17.561,4,15.338,6.223,13.9,4.788l3.011-2.223ZM12.975,7.63h.957l.872,5.205-1.351,1.379L12.1,12.835Zm1.069-.563h-1.21l-.647-.647,1.266-1.266L14.719,6.42ZM16.435,2.2,13.453,4.422,10.471,2.2A7.573,7.573,0,0,1,16.435,2.2Zm-6.415.366,3.011,2.223L11.6,6.223,9.373,4Zm10.523,15a.889.889,0,0,1-.9.9H7.263a.889.889,0,0,1-.9-.9V5.238a.889.889,0,0,1,.9-.9H8.895l2.5,2.5a.272.272,0,0,0,.394,0h0l.647.647-.928,5.43c-.028.084.028.169.084.253l1.66,1.66a.272.272,0,0,0,.394,0l1.66-1.66a.393.393,0,0,0,.084-.253l-.928-5.43.647-.647h0a.272.272,0,0,0,.394,0l2.5-2.5h1.632a.889.889,0,0,1,.9.9Z" transform="translate(-5.8 -1.025)" />
    <path id="Path_269" data-name="Path 269" d="M45.142,21.832h-.225l-1.182-2.363a.41.41,0,0,0-.253-.169.3.3,0,0,0-.253.141L41.935,21.8h-.253a.281.281,0,1,0,0,.563h3.433a.266.266,0,0,0,.281-.281A.236.236,0,0,0,45.142,21.832ZM43.454,20.2l.816,1.632H42.582Z" transform="translate(-31.384 -14.158)" />
  </g>
</svg>
