<svg xmlns="http://www.w3.org/2000/svg" width="19.75" height="24" viewBox="0 0 19.75 24">
  <path id="MyOrder" data-name="My Order" d="M-3366.057-206.326a.941.941,0,0,1-.94-.94V-224.2a.941.941,0,0,1,.94-.94h2.886a2.954,2.954,0,0,1,2.8-2.341,3.275,3.275,0,0,1,3.246-2.849,3.273,3.273,0,0,1,3.246,2.85,2.955,2.955,0,0,1,2.8,2.341h2.886a.94.94,0,0,1,.938.94v16.929a.94.94,0,0,1-.939.94Zm.939-1.882h15.988v-15.047h-1.95a2.964,2.964,0,0,1-2.89,2.352h-6.32a2.963,2.963,0,0,1-2.89-2.352h-1.95Zm3.763-16.326v.678a1.067,1.067,0,0,0,.313.759,1.07,1.07,0,0,0,.759.313h6.32a1.073,1.073,0,0,0,1.073-1.072v-.678a1.072,1.072,0,0,0-1.072-1.072h-.2a3.272,3.272,0,0,1-2.962,1.882,3.271,3.271,0,0,1-2.963-1.882h-.2a1.073,1.073,0,0,0-.763.311,1.073,1.073,0,0,0-.317.761Zm10.348.678a3.025,3.025,0,0,1-.038.465,2.528,2.528,0,0,0,.03-.466Zm-12.195.429a3.075,3.075,0,0,1-.031-.429,2.607,2.607,0,0,0,.026.427Zm-.031-1.107h0a2.974,2.974,0,0,1,.033-.432,2.562,2.562,0,0,0-.038.432Zm12.226,0a2.522,2.522,0,0,0-.04-.469,2.962,2.962,0,0,1,.032.469Zm-7.524-2.482a1.41,1.41,0,0,0,1.411,1.41,1.411,1.411,0,0,0,1.412-1.41,1.412,1.412,0,0,0-1.412-1.411,1.412,1.412,0,0,0-1.005.409,1.411,1.411,0,0,0-.417,1Zm-.038,15.734a.945.945,0,0,1-.667-.273l-2.314-2.323a.942.942,0,0,1,0-1.327.938.938,0,0,1,.669-.277.942.942,0,0,1,.669.277l1.649,1.65,4.544-4.543a.945.945,0,0,1,1.334,0,.947.947,0,0,1,0,1.336l-5.211,5.21a.945.945,0,0,1-.663.273Z" transform="translate(3366.997 230.326)"/>
</svg>
