<svg xmlns="http://www.w3.org/2000/svg" width="23.933" height="24" viewBox="0 0 23.933 24">
  <path id="Union_1" data-name="Union 1" d="M-3356.5-166.647l-8.7-4.081h0a3.047,3.047,0,0,1-1.8-2.753v-9.7a2.915,2.915,0,0,1,.425-1.5,1,1,0,0,1,.17-.254,3.2,3.2,0,0,1,1.214-.98l3.921-1.838a1.132,1.132,0,0,1,.567-.266l4.217-1.977h0a3.439,3.439,0,0,1,1.454-.318,3.437,3.437,0,0,1,1.454.318h0l8.7,4.081h0a3.054,3.054,0,0,1,1.809,2.739v9.721h0a3.051,3.051,0,0,1-1.811,2.738l-8.7,4.081a3.455,3.455,0,0,1-1.461.323,3.453,3.453,0,0,1-1.458-.33Zm.387-2.1v-10l-8.715-4.05v9.336a1.011,1.011,0,0,0,.6.917h0Zm2.162,0,8.1-3.8h0a1.013,1.013,0,0,0,.6-.912V-182.8l-8.714,4.05Zm-1.08-11.758,3.069-1.428-8.488-3.929-3.036,1.422Zm5.51-2.564,2.943-1.37-7.969-3.734a1.149,1.149,0,0,0-.97,0l-2.5,1.172Z" transform="translate(3367 190.317)"/>
</svg>
