<?xml version="1.0" encoding="utf-8"?>
<!-- Generator: Adobe Illustrator 22.0.0, SVG Export Plug-In . SVG Version: 6.00 Build 0)  -->
<svg version="1.1" id="Layer_1" xmlns="http://www.w3.org/2000/svg" xmlns:xlink="http://www.w3.org/1999/xlink" x="0px" y="0px"
	 viewBox="0 0 565.1 280" style="enable-background:new 0 0 565.1 280;" xml:space="preserve">
<path d="M256,60c-16.8,0-32.9,9.3-44.2,25.5C201.6,100.3,196,119.6,196,140s5.6,39.7,15.8,54.5c11.2,16.2,27.3,25.5,44.2,25.5
	s32.9-9.3,44.2-25.5c10.2-14.8,15.8-34.1,15.8-54.5s-5.6-39.7-15.8-54.5C288.9,69.3,272.8,60,256,60z M256,190c-16,0-30-23.4-30-50
	s14-50,30-50s30,23.4,30,50S272,190,256,190z"/>
<g>
	<polygon points="459.4,280 512,280 512,227.4 	"/>
	<path d="M336,250H88.5c-6-29.3-29.1-52.5-58.5-58.5v-103c29.3-6,52.5-29.1,58.5-58.5h335c5.7,28.2,27.3,50.6,55,57.7l18.1-18.1
		c4.4-4.4,9.6-7.6,15.3-9.6V0H0v280h366L336,250z M482,30v27.4c-12.8-4.5-22.9-14.7-27.4-27.4H482z M30,30h27.4
		C52.9,42.8,42.8,52.9,30,57.4V30z M30,250v-27.4c12.8,4.5,22.9,14.7,27.4,27.4H30z"/>
</g>
<path d="M405.3,276.9c2,2,4.6,3.1,7.4,3.1c2.8,0,5.4-1.1,7.4-3.1l142-142c2-2,3.1-4.6,3.1-7.4c0-2.8-1.1-5.4-3.1-7.4l-29.5-29.5
	c-4.1-4.1-10.7-4.1-14.7,0L412.7,195.9l-29.5-29.5c-2-2-4.6-3.1-7.4-3.1c-2.8,0-5.4,1.1-7.4,3.1l-29.5,29.5
	c-4.1,4.1-4.1,10.7,0,14.7L405.3,276.9z"/>
</svg>
