<svg xmlns="http://www.w3.org/2000/svg" width="24" height="23.394" viewBox="0 0 24 23.394">
  <path id="search" data-name="Search" d="M14.315,0a9.076,9.076,0,1,0,9.078,9.074A9.075,9.075,0,0,0,14.315,0Zm0,15.431a6.355,6.355,0,1,1,6.356-6.357A6.356,6.356,0,0,1,14.315,15.431ZM8.992,18.58,4.309,23.263A2.525,2.525,0,0,1,.737,19.694L5.28,15.152A10.87,10.87,0,0,0,8.992,18.58Zm8.389-7.086a.971.971,0,0,1-.936-1.23,3.5,3.5,0,0,0-.867-3.623.971.971,0,0,1,1.234-1.5,5.411,5.411,0,0,1,1.5,5.639A.971.971,0,0,1,17.381,11.494Z" transform="translate(0 23.394) rotate(-90)" />
</svg>
