<svg xmlns="http://www.w3.org/2000/svg" width="24" height="23.995" viewBox="0 0 24 23.995">
  <g id="Group_602" data-name="Group 602" transform="translate(-558 -711)">
    <path id="Path_244" data-name="Path 244" d="M377.2,81.232a1.011,1.011,0,0,0,1-1.014v-3.1a1,1,0,1,0-2.008,0v3.11A1.006,1.006,0,0,0,377.2,81.232Z" transform="translate(199.635 638.039)"/>
    <path id="Path_245" data-name="Path 245" d="M377.2,339.137a1.011,1.011,0,0,0,1-1.014v-3.11a1,1,0,1,0-2.008,0v3.11A1.011,1.011,0,0,0,377.2,339.137Z" transform="translate(199.635 392.768)"/>
    <path id="Path_246" data-name="Path 246" d="M92.5,366.827a1.014,1.014,0,1,0-1-1.014A1.011,1.011,0,0,0,92.5,366.827Z" transform="translate(470.394 363.476)"/>
    <path id="Path_247" data-name="Path 247" d="M92.5,108.927a1.014,1.014,0,1,0-1-1.014A1.011,1.011,0,0,0,92.5,108.927Z" transform="translate(470.394 608.747)"/>
    <path id="Path_248" data-name="Path 248" d="M33.973,21.368H14.022V14.037h19.95ZM34.981,12H13.014A1.014,1.014,0,0,0,12,13.019v9.368a1.014,1.014,0,0,0,1.014,1.019H34.986A1.017,1.017,0,0,0,36,22.386V13.019A1.021,1.021,0,0,0,34.981,12Z" transform="translate(546 699)"/>
    <path id="Path_249" data-name="Path 249" d="M33.973,278.468H14.022v-7.331h19.95Zm1.009-9.368H13.014A1.017,1.017,0,0,0,12,270.119v9.368a1.014,1.014,0,0,0,1.014,1.019H34.986A1.017,1.017,0,0,0,36,279.486v-9.368A1.021,1.021,0,0,0,34.981,269.1Z" transform="translate(546 454.49)"/>
  </g>
</svg>
