<svg xmlns="http://www.w3.org/2000/svg" width="24" height="24" viewBox="0 0 24 24">
  <path id="Union_4" data-name="Union 4" d="M-2718.918,66.676v-.059a.643.643,0,0,0-.427-.6l-.058-.024a.643.643,0,0,0-.717.13l-.051.051a3.016,3.016,0,0,1-4.244,0,3.018,3.018,0,0,1,0-4.243l.051-.051a.643.643,0,0,0,.131-.717v-.011a.647.647,0,0,0-.6-.394H-2725a3,3,0,0,1-3-3,3,3,0,0,1,3-3h.063a.646.646,0,0,0,.6-.427c.008-.02.016-.039.024-.058a.643.643,0,0,0-.131-.717l-.051-.051a3,3,0,0,1,0-4.246,3,3,0,0,1,4.246,0l.051.051a.643.643,0,0,0,.715.132.929.929,0,0,1,.115-.043.641.641,0,0,0,.37-.558v-.166a3.014,3.014,0,0,1,3-3,3.016,3.016,0,0,1,3,3v.085a.649.649,0,0,0,.394.6h.011a.643.643,0,0,0,.717-.131l.052-.051a3,3,0,0,1,4.243,0,3,3,0,0,1,0,4.244l-.051.051a.642.642,0,0,0-.13.717,1.09,1.09,0,0,1,.043.115.638.638,0,0,0,.556.37h.167a3,3,0,0,1,3,3,3,3,0,0,1-3,3h-.085a.647.647,0,0,0-.6.394v.011a.641.641,0,0,0,.131.717l.05.051a3.016,3.016,0,0,1,0,4.242,3.015,3.015,0,0,1-4.243,0l-.051-.051a.643.643,0,0,0-.717-.13h-.011a.647.647,0,0,0-.394.6v.166a3,3,0,0,1-3,3A3,3,0,0,1-2718.918,66.676Zm.3-2.519a2.739,2.739,0,0,1,1.7,2.406v.113a1,1,0,0,0,.489.9,1,1,0,0,0,1.022,0,1,1,0,0,0,.488-.9V66.5a2.664,2.664,0,0,1,1.636-2.435,2.664,2.664,0,0,1,2.884.545l.007.008.061.058a.981.981,0,0,0,.707.3.981.981,0,0,0,.706-.3.977.977,0,0,0,.3-.707.976.976,0,0,0-.3-.706l-.058-.061-.007-.007a2.663,2.663,0,0,1-.547-2.884,2.665,2.665,0,0,1,2.437-1.636h.093a1,1,0,0,0,.9-.489,1,1,0,0,0,0-1.023,1,1,0,0,0-.9-.487h-.174a2.657,2.657,0,0,1-2.426-1.605,1.018,1.018,0,0,1-.072-.269,2.655,2.655,0,0,1,.607-2.729l.007-.008.058-.059a.987.987,0,0,0,.3-.707.983.983,0,0,0-.3-.707.981.981,0,0,0-.706-.3.982.982,0,0,0-.707.3l-.061.058-.007.008a2.664,2.664,0,0,1-2.883.545A2.66,2.66,0,0,1-2715,48.767v-.09a.983.983,0,0,0-.289-.711.984.984,0,0,0-.711-.289.98.98,0,0,0-.711.289.981.981,0,0,0-.289.711v.174a2.658,2.658,0,0,1-1.605,2.426,1.007,1.007,0,0,1-.265.071,2.657,2.657,0,0,1-2.729-.607l-.008-.008-.059-.058a.983.983,0,0,0-.708-.3.986.986,0,0,0-.708.3.981.981,0,0,0-.3.707.981.981,0,0,0,.3.707l.06.059.006.008a2.737,2.737,0,0,1,.533,2.9,2.736,2.736,0,0,1-2.4,1.7H-2725a1,1,0,0,0-.961,1,1,1,0,0,0,.961,1h.174a2.664,2.664,0,0,1,2.437,1.636,2.668,2.668,0,0,1-.547,2.884l-.007.007-.06.061a.982.982,0,0,0-.3.706.983.983,0,0,0,.3.707.985.985,0,0,0,.708.3.982.982,0,0,0,.708-.3l.06-.058.008-.008a2.74,2.74,0,0,1,1.869-.736A2.735,2.735,0,0,1-2718.622,64.157ZM-2709.6,55Zm-10.4,2.681a4,4,0,0,1,4-4,4.017,4.017,0,0,1,4,4,4,4,0,0,1-4,4A4,4,0,0,1-2720,57.677Zm2.581-1.42a1.985,1.985,0,0,0-.58,1.419,2,2,0,0,0,2,2,2,2,0,0,0,2-2,2,2,0,0,0-2-2h-.015A1.989,1.989,0,0,0-2717.419,56.257Z" transform="translate(2728 -45.677)"/>
</svg>
