<svg id="sport-outdoor" xmlns="http://www.w3.org/2000/svg" width="17.663" height="18" viewBox="0 0 17.663 18">
  <path id="Path_235" data-name="Path 235" d="M30.4,26a5.4,5.4,0,1,0,5.4,5.4A5.4,5.4,0,0,0,30.4,26Zm0,10.234A4.831,4.831,0,1,1,35.234,31.4,4.831,4.831,0,0,1,30.4,36.234Z" transform="translate(-18.143 -18.857)" />
  <path id="Path_236" data-name="Path 236" d="M37.954,32.977a.977.977,0,1,0-.977.977A.977.977,0,0,0,37.954,32.977Zm-.977.406a.406.406,0,1,1,.406-.406A.406.406,0,0,1,36.977,33.383Z" transform="translate(-26 -23.143)" />
  <path id="Path_237" data-name="Path 237" d="M41.149,38.92a.977.977,0,1,0,.966.977.977.977,0,0,0-.966-.977Zm0,1.383a.406.406,0,1,1,.394-.406A.406.406,0,0,1,41.149,40.3Z" transform="translate(-28.971 -28.086)" />
  <path id="Path_238" data-name="Path 238" d="M45.367,32a.977.977,0,1,0,.977.977A.977.977,0,0,0,45.367,32Zm0,1.383a.406.406,0,1,1,.406-.406A.406.406,0,0,1,45.367,33.383Z" transform="translate(-31.993 -23.143)" />
  <path id="Path_239" data-name="Path 239" d="M5.571,7.674a17.637,17.637,0,0,1,.22-2.22,13.1,13.1,0,0,0,.151-1.569,1.8,1.8,0,1,0-3.6,0,13.143,13.143,0,0,0,.166,1.563,17.588,17.588,0,0,1,.206,2.223,9.709,9.709,0,0,1-.823,2.611A9.468,9.468,0,0,0,1,13.143C1,17.291,2.317,19.2,2.371,19.28l.029.034c.066.069.457.4,1.743.4s1.677-.331,1.743-.4l.029-.034c.057-.08,1.371-2,1.371-6.14a9.491,9.491,0,0,0-.891-2.857A9.666,9.666,0,0,1,5.571,7.674ZM3.286,7.531H5v.143a2.749,2.749,0,0,0,.086.611H3.211a2.749,2.749,0,0,0,.074-.611Zm.857-4.96A1.259,1.259,0,0,1,5.371,3.889a13.206,13.206,0,0,1-.16,1.483c-.071.511-.146,1.066-.189,1.586H3.263c-.043-.523-.117-1.077-.189-1.586a13.257,13.257,0,0,1-.16-1.477A1.26,1.26,0,0,1,4.143,2.571ZM5.469,18.917a2.654,2.654,0,0,1-1.326.226,2.771,2.771,0,0,1-1.323-.22,11.142,11.142,0,0,1-1.249-5.78,9.541,9.541,0,0,1,.857-2.649c.234-.571.463-1.143.629-1.634H5.249c.166.5.391,1.057.629,1.634a10.044,10.044,0,0,1,.837,2.649A11.159,11.159,0,0,1,5.469,18.917Z" transform="translate(-1 -1.714)" />
  <path id="Path_240" data-name="Path 240" d="M28.429,7.857c3.006,0,5.429-1.874,5.429-3.429S31.434,1,28.429,1C25.589,1,23,2.634,23,4.429S25.589,7.857,28.429,7.857Zm0-6.286c2.817,0,4.857,1.714,4.857,2.857s-2.04,2.857-4.857,2.857c-2.734,0-4.857-1.537-4.857-2.857S25.694,1.571,28.429,1.571Z" transform="translate(-16.714 -1)" />
  <path id="Path_241" data-name="Path 241" d="M27.286,10.814h.286v.417a.286.286,0,1,0,.571,0v-.417h.571v.417a.286.286,0,1,0,.571,0v-.417h.571v.417a.286.286,0,1,0,.571,0v-.417H31v.417a.286.286,0,1,0,.571,0v-.417h.571v.417a.286.286,0,1,0,.571,0v-.417h.571v.417a.286.286,0,0,0,.571,0v-.417h.571v.417a.286.286,0,1,0,.571,0v-.417h.286a.286.286,0,0,0,0-.571H35V9.826a.286.286,0,1,0-.571,0v.417h-.571V9.826a.286.286,0,0,0-.571,0v.417h-.571V9.826a.286.286,0,0,0-.571,0v.417h-.571V9.826a.286.286,0,0,0-.571,0v.417h-.571V9.826a.286.286,0,1,0-.571,0v.417h-.571V9.826a.286.286,0,0,0-.571,0v.417h-.571V9.826a.286.286,0,0,0-.571,0v.417h-.286a.286.286,0,1,0,0,.571Z" transform="translate(-19.571 -7.1)" />
</svg>
