<svg xmlns="http://www.w3.org/2000/svg" width="23.985" height="24" viewBox="0 0 23.985 24">
  <path id="Union_5" data-name="Union 5" d="M-2716.008,69.677A11.992,11.992,0,0,1-2728,57.684a11.992,11.992,0,0,1,11.8-11.99,1.088,1.088,0,0,1,.172-.016h0a1.1,1.1,0,0,1,.206.017,12.009,12.009,0,0,1,11.8,11.99,11.993,11.993,0,0,1-11.993,11.993Zm-1.089-2.241v-3.21a1.089,1.089,0,0,1,1.072-1.106h0a1.092,1.092,0,0,1,.787.319,1.088,1.088,0,0,1,.32.787v3.21a9.816,9.816,0,0,0,8.661-8.661h-3.209a1.09,1.09,0,0,1-1.091-1.091,1.09,1.09,0,0,1,1.091-1.089h3.209a9.816,9.816,0,0,0-8.661-8.661v3.21a1.091,1.091,0,0,1-1.091,1.091,1.09,1.09,0,0,1-1.089-1.091V47.932a9.788,9.788,0,0,0-5.853,2.81,9.788,9.788,0,0,0-2.81,5.852h3.211a1.09,1.09,0,0,1,1.091,1.089,1.09,1.09,0,0,1-1.091,1.091h-3.209A9.814,9.814,0,0,0-2717.1,67.435Z" transform="translate(2728 -45.677)"/>
</svg>
