<svg xmlns="http://www.w3.org/2000/svg" width="24" height="25.183" viewBox="0 0 24 25.183">
  <g id="Group_480" data-name="Group 480" transform="translate(-281.5 -198)">
    <path id="Compound_Path" data-name="Compound Path" d="M38.457,17.557H31.917V16.235A2.435,2.435,0,0,0,29.483,13.8H25.517a2.435,2.435,0,0,0-2.435,2.435v1.322H16.543a1.043,1.043,0,0,0,0,2.087h2.122V35.157a3.826,3.826,0,0,0,3.826,3.826H32.509a3.826,3.826,0,0,0,3.826-3.826V19.643h2.122a1.043,1.043,0,1,0,0-2.087ZM25.17,16.235a.348.348,0,0,1,.348-.348h3.965a.348.348,0,0,1,.348.348v1.322H25.17Zm9.043,18.957a1.739,1.739,0,0,1-1.739,1.739H22.491a1.739,1.739,0,0,1-1.739-1.739V19.643h13.5Z" transform="translate(266 184.2)"/>
    <path id="Path" d="M55.543,49.587a1.043,1.043,0,0,0,1.043-1.043v-10.4a1.043,1.043,0,1,0-2.087,0v10.4A1.043,1.043,0,0,0,55.543,49.587Z" transform="translate(240.565 169.004)"/>
    <path id="Path-2" data-name="Path" d="M40.543,49.587a1.043,1.043,0,0,0,1.043-1.043v-10.4a1.043,1.043,0,1,0-2.087,0v10.4A1.043,1.043,0,0,0,40.543,49.587Z" transform="translate(250.348 169.004)"/>
  </g>
</svg>
