<?xml version="1.0" encoding="utf-8"?>
<!-- Generator: Adobe Illustrator 22.0.0, SVG Export Plug-In . SVG Version: 6.00 Build 0)  -->
<svg version="1.1" id="Layer_1" xmlns="http://www.w3.org/2000/svg" xmlns:xlink="http://www.w3.org/1999/xlink" x="0px" y="0px"
	 viewBox="0 0 581.7 280" style="enable-background:new 0 0 581.7 280;" xml:space="preserve">
<path d="M256,60c-16.8,0-32.9,9.3-44.2,25.5C201.6,100.3,196,119.6,196,140s5.6,39.7,15.8,54.5c11.2,16.2,27.3,25.5,44.2,25.5
	s32.9-9.3,44.2-25.5c10.2-14.8,15.8-34.1,15.8-54.5s-5.6-39.7-15.8-54.5C288.9,69.3,272.8,60,256,60z M256,190c-16,0-30-23.4-30-50
	s14-50,30-50s30,23.4,30,50S272,190,256,190z"/>
<path d="M341.7,250H88.5c-6-29.3-29.1-52.5-58.5-58.5v-103c29.3-6,52.5-29.1,58.5-58.5h315.8c2.1-7.1,4.7-14,8-20.7l4.6-9.3H0v280
	h402.5L341.7,250z M30,30h27.4C52.9,42.8,42.8,52.9,30,57.4V30z M30,250v-27.4c12.8,4.5,22.9,14.7,27.4,27.4H30z"/>
<path d="M575.4,58.4L575.4,58.4L461.7,2.3c-5.4-2.7-12.4-0.3-15.1,5.1l-7.5,15.1c-15.7,31.9-12.9,70.9,7.4,109
	c-8.8,1.5-17.3,3.6-25.3,6.3C390.7,148.2,368,167,355.6,192l-7.5,15.1c-3.7,8.3,2.3,13.8,5.1,15.1L467,278.3
	c7.3,3.5,13.6-1.6,15.1-5.1l7.5-15.1c15.7-31.9,12.9-70.9-7.4-109c8.8-1.5,17.3-3.6,25.3-6.3c30.6-10.4,53.3-29.1,65.6-54.2
	l7.5-15.1C583.3,67.9,581,61.1,575.4,58.4z M469.3,248.1l-2.5,5.1l-93.5-46.1l2-4l101.1-0.4C478.4,219,476,234.5,469.3,248.1z
	 M391.8,180.5c9.7-9.2,22-16.4,36.7-21.3c9.2-3.1,19.2-5.3,29.8-6.5c5.5,9.2,9.9,18.4,13,27.6L391.8,180.5z M552.9,78.7
	c-9.7,19.6-27.9,34.5-52.7,42.9c-9.2,3.1-19.2,5.3-29.8,6.5c-20.3-33.9-24.4-68.4-11-95.5l2.5-5.1l93.5,46.1L552.9,78.7L552.9,78.7z
	"/>
</svg>
