<svg xmlns="http://www.w3.org/2000/svg" width="21.824" height="24" viewBox="0 0 21.824 24">
  <path id="User" data-name="user" d="M-6218.36,24a8.736,8.736,0,0,0-8.728-8.728A8.736,8.736,0,0,0-6235.816,24H-6238a10.927,10.927,0,0,1,6.638-10.04,7.635,7.635,0,0,1-3.362-6.323A7.648,7.648,0,0,1-6227.088,0a7.648,7.648,0,0,1,7.637,7.637,7.636,7.636,0,0,1-3.363,6.323A10.927,10.927,0,0,1-6216.176,24Zm-14.181-16.372a5.46,5.46,0,0,0,5.453,5.453,5.46,5.46,0,0,0,5.451-5.453,5.46,5.46,0,0,0-5.451-5.451A5.46,5.46,0,0,0-6232.541,7.627Z" transform="translate(6238)"/>
</svg>
