<svg xmlns="http://www.w3.org/2000/svg" width="17.845" height="18" viewBox="0 0 17.845 18">
  <path id="women-fashion" d="M17.029,9.222l1.435.978a.36.36,0,0,0,.49-.081l2.033-2.7a.36.36,0,0,0-.024-.462l-3.081-3.3a.336.336,0,0,0-.03-.022.33.33,0,0,0-.124-.07.335.335,0,0,0-.035-.015l-2.573-.54a.36.36,0,0,0-.425.272c-.006.026-.624,2.6-2.554,2.6h-.008c-1.875,0-2.549-2.584-2.555-2.61a.36.36,0,0,0-.423-.265l-2.573.54a.338.338,0,0,0-.035.015.329.329,0,0,0-.124.07.338.338,0,0,0-.03.022l-3.081,3.3a.36.36,0,0,0-.024.462l2.033,2.7a.36.36,0,0,0,.49.081l1.435-.978.162.9v2.14L3.414,20.482a.36.36,0,0,0,.478.483l2.733-1.291,2.608,1.289a.361.361,0,0,0,.31,0l2.733-1.261,2.481,1.255a.361.361,0,0,0,.314.005L17.79,19.7l2.594,1.259a.36.36,0,0,0,.481-.481l-4-8.216v-2.14Zm-8.9,2.767V10.454h8.019v1.535ZM18.586,9.412l-1.417-.966.678-3.775,2.385,2.557ZM8.981,3.78c.278.814,1.166,2.823,3.153,2.823h0v-.36l0,.36h0c2.034,0,2.892-2,3.158-2.821l1.9.4-1,5.554H8.069l-1-5.554ZM5.689,9.412,4.044,7.228,6.429,4.671l.678,3.775ZM19.762,19.861l-1.811-.879a.361.361,0,0,0-.309,0L14.926,20.24l-2.481-1.255a.359.359,0,0,0-.313-.006L9.4,20.241l-2.609-1.29a.36.36,0,0,0-.313,0l-1.966.929,3.484-7.168H9.422l-.435,1.844a.36.36,0,1,0,.7.166l.475-2.01H11.78v1.927a.36.36,0,0,0,.72,0V12.709h1.785l.475,2.01a.36.36,0,1,0,.7-.166l-.435-1.844h1.258Z" transform="translate(-3.215 -3)" />
</svg>
